<?xml version="1.0" standalone="no"?>
<!DOCTYPE svg PUBLIC "-//W3C//DTD SVG 20010904//EN"
 "http://www.w3.org/TR/2001/REC-SVG-20010904/DTD/svg10.dtd">
<svg version="1.0" xmlns="http://www.w3.org/2000/svg"
 width="512.000000pt" height="512.000000pt" viewBox="0 0 512.000000 512.000000"
 preserveAspectRatio="xMidYMid meet">

<g transform="translate(0.000000,512.000000) scale(0.100000,-0.100000)"
fill="#000000" stroke="none">
<path d="M1575 3194 c-232 -36 -408 -194 -446 -399 -21 -115 10 -188 95 -220
104 -40 215 38 216 151 0 43 38 94 90 124 40 22 57 25 150 25 94 0 110 -3 149
-25 57 -32 81 -66 88 -121 16 -126 113 -195 218 -154 85 32 116 102 96 215
-43 242 -242 396 -520 405 -58 2 -119 1 -136 -1z"/>
<path d="M3335 3194 c-232 -36 -408 -194 -446 -399 -21 -113 7 -181 89 -217
65 -29 122 -18 172 32 31 31 40 48 45 87 16 133 102 190 270 181 131 -7 198
-55 214 -154 11 -74 38 -115 94 -143 67 -33 124 -24 177 29 50 50 59 100 36
203 -51 229 -246 373 -515 382 -58 2 -119 1 -136 -1z"/>
<path d="M1390 2073 c-59 -22 -110 -94 -110 -155 0 -18 14 -60 30 -92 190
-375 745 -585 1423 -538 424 29 734 146 942 356 79 80 138 169 156 238 11 39
10 52 -5 92 -51 134 -225 137 -292 4 -120 -236 -486 -378 -974 -378 -488 0
-839 135 -972 375 -26 47 -43 65 -78 83 -42 21 -88 27 -120 15z"/>
</g>
</svg>
